<?xml version="1.0" encoding="UTF-8" standalone="no"?>
<svg width="158px" height="40px" viewBox="0 0 158 40" version="1.1" xmlns="http://www.w3.org/2000/svg" xmlns:xlink="http://www.w3.org/1999/xlink" xmlns:sketch="http://www.bohemiancoding.com/sketch/ns">
    <!-- Generator: Sketch 3.4 (15575) - http://www.bohemiancoding.com/sketch -->
    <title>TheRefinery-master-logo-03</title>
    <desc>Created with Sketch.</desc>
    <defs></defs>
    <g id="Page-1" stroke="none" stroke-width="1" fill="none" fill-rule="evenodd" sketch:type="MSPage">
        <g id="Artboard-1" sketch:type="MSArtboardGroup" transform="translate(-285.000000, -333.000000)">
            <g id="TheRefinery-master-logo-03" sketch:type="MSLayerGroup" transform="translate(285.000000, 333.000000)">
                <path d="M63.288,23.1455 C63.288,23.8175 62.7435,24.3625 62.0715,24.3625 L60.742,24.3625 L60.742,19.7655 L62.0715,19.7655 C62.7435,19.7655 63.288,20.31 63.288,20.9825 L63.288,23.1455 L63.288,23.1455 Z M63.7615,15.5065 L54.883,15.5065 L54.883,35.246 L60.742,35.246 L60.742,28.3735 L61.215,28.3735 L63.829,35.246 L68.6285,35.246 L68.6285,31.821 L66.668,27.607 L66.668,27.382 C66.668,27.382 68.085,26.6775 68.6285,25.151 L68.6285,18.5035 C68.6285,18.5035 67.5105,15.9205 63.7615,15.5065 L63.7615,15.5065 Z" id="Fill-1" fill="#0F182A" sketch:type="MSShapeGroup"></path>
                <path d="M137.2665,23.1455 C137.2665,23.8175 136.722,24.3625 136.0495,24.3625 L134.7205,24.3625 L134.7205,19.7655 L136.0495,19.7655 C136.722,19.7655 137.2665,20.31 137.2665,20.9825 L137.2665,23.1455 L137.2665,23.1455 Z M137.74,15.5065 L128.8615,15.5065 L128.8615,35.246 L134.7205,35.246 L134.7205,28.3735 L135.1935,28.3735 L137.8075,35.246 L142.607,35.246 L142.607,31.821 L140.6465,27.607 L140.6465,27.382 C140.6465,27.382 142.0635,26.6775 142.607,25.151 L142.607,18.5035 C142.607,18.5035 141.489,15.9205 137.74,15.5065 L137.74,15.5065 Z" id="Fill-2" fill="#0F182A" sketch:type="MSShapeGroup"></path>
                <path d="M75.3775,27.303 L80.1455,27.303 L80.1455,23.1115 L75.3775,23.1115 L75.3775,19.698 L80.515,19.698 L80.515,15.5065 L69.713,15.5065 L69.713,35.246 L80.6305,35.246 L80.6305,31.055 L75.3775,31.055 L75.3775,27.303" id="Fill-3" fill="#0F182A" sketch:type="MSShapeGroup"></path>
                <path d="M122.416,27.303 L127.1845,27.303 L127.1845,23.1115 L122.416,23.1115 L122.416,19.698 L127.554,19.698 L127.554,15.5065 L116.752,15.5065 L116.752,35.246 L127.6695,35.246 L127.6695,31.055 L122.416,31.055 L122.416,27.303" id="Fill-4" fill="#0F182A" sketch:type="MSShapeGroup"></path>
                <path d="M81.6105,35.246 L87.275,35.246 L87.275,27.6745 L92.0435,27.6745 L92.0435,23.4835 L87.275,23.4835 L87.275,19.698 L92.4125,19.698 L92.4125,15.5065 L81.6105,15.5065 L81.6105,35.246" id="Fill-5" fill="#0F182A" sketch:type="MSShapeGroup"></path>
                <path d="M93.2915,15.5065 L98.956,15.5065 L98.956,35.246 L93.2915,35.246 L93.2915,15.5065 Z" id="Fill-6" fill="#0F182A" sketch:type="MSShapeGroup"></path>
                <path d="M109.82,24.058 L109.3805,24.058 L106.3045,15.5065 L100.3025,15.5065 L100.3025,35.246 L105.73,35.246 L105.73,26.83 L106.271,26.8295 L109.3465,35.246 L115.2955,35.246 L115.2955,15.5065 L109.82,15.5065 L109.82,24.058" id="Fill-7" fill="#0F182A" sketch:type="MSShapeGroup"></path>
                <path d="M152.69,15.5065 L150.9325,21.354 L150.4255,21.354 L148.8705,15.5065 L143.5975,15.5065 L143.5975,18.9205 L147.5525,28.0125 L147.5525,35.246 L153.231,35.246 L153.231,28.114 L157.5235,19.0555 L157.5235,15.5065 L152.69,15.5065" id="Fill-8" fill="#0F182A" sketch:type="MSShapeGroup"></path>
                <path d="M40.404,20.9145 L38.604,20.9145 L38.604,15.5065 L34.9535,15.5065 L34.9535,30.412 L38.604,30.412 L38.604,24.2945 L40.404,24.2945 L40.404,30.412 L44.0545,30.412 L44.0545,15.5065 L40.404,15.5065 L40.404,20.9145" id="Fill-9" fill="#0F182A" sketch:type="MSShapeGroup"></path>
                <path d="M48.8765,27.032 L48.8765,24.4805 L51.8245,24.4805 L51.8245,21.1 L48.8765,21.1 L48.8765,18.8865 L51.9985,18.8865 L51.9985,15.5065 L45.226,15.5065 L45.226,30.412 L52.087,30.412 L52.087,27.032 L48.8765,27.032" id="Fill-10" fill="#0F182A" sketch:type="MSShapeGroup"></path>
                <path d="M25.5575,18.8865 L27.967,18.8865 L27.967,30.412 L31.6175,30.412 L31.6175,18.8865 L34.027,18.8865 L34.027,15.5065 L25.5575,15.5065 L25.5575,18.8865" id="Fill-11" fill="#0F182A" sketch:type="MSShapeGroup"></path>
                <path d="M11.055,0.026 L18.306,5.827 L11.055,11.628 L11.055,0.026" id="Fill-12" fill="#DC3641" sketch:type="MSShapeGroup"></path>
                <path d="M18.306,5.827 L3.8035,17.429 L3.8035,26.453 L18.306,14.851 L18.306,5.827" id="Fill-13" fill="#A22B30" sketch:type="MSShapeGroup"></path>
                <path d="M3.8035,26.453 L11.055,32.254 L18.306,26.453 L18.306,14.851 L3.8035,26.453" id="Fill-14" fill="#DC3641" sketch:type="MSShapeGroup"></path>
                <path d="M0.178,35.1545 L21.932,35.1545 L21.932,39.505 L0.178,39.505 L0.178,35.1545 Z" id="Fill-15" fill="#0F182A" sketch:type="MSShapeGroup"></path>
            </g>
        </g>
    </g>
</svg>